<mxfile host="app.diagrams.net" agent="Mozilla/5.0 (Windows NT 10.0; Win64; x64) AppleWebKit/537.36 (KHTML, like Gecko) Chrome/120.0.0.0 Safari/537.36 Edg/120.0.0.0" version="24.7.17">
  <diagram name="第 1 页" id="OXj2m4CkABmJrNMU44Qb">
    <mxGraphModel dx="1002" dy="577" grid="1" gridSize="10" guides="1" tooltips="1" connect="1" arrows="1" fold="1" page="1" pageScale="1" pageWidth="827" pageHeight="1169" math="0" shadow="0">
      <root>
        <mxCell id="0" />
        <mxCell id="1" parent="0" />
        <mxCell id="3gEgKdH4jr2DElg1Tsu_-7" style="edgeStyle=orthogonalEdgeStyle;rounded=0;orthogonalLoop=1;jettySize=auto;html=1;exitX=1;exitY=0;exitDx=0;exitDy=0;entryX=0;entryY=0;entryDx=0;entryDy=0;" edge="1" parent="1" source="3gEgKdH4jr2DElg1Tsu_-1" target="3gEgKdH4jr2DElg1Tsu_-2">
          <mxGeometry relative="1" as="geometry" />
        </mxCell>
        <mxCell id="3gEgKdH4jr2DElg1Tsu_-8" value="start_dat ==2`b01" style="edgeLabel;html=1;align=center;verticalAlign=middle;resizable=0;points=[];" vertex="1" connectable="0" parent="3gEgKdH4jr2DElg1Tsu_-7">
          <mxGeometry x="0.1434" y="-2" relative="1" as="geometry">
            <mxPoint x="-12" y="-4" as="offset" />
          </mxGeometry>
        </mxCell>
        <mxCell id="3gEgKdH4jr2DElg1Tsu_-21" style="edgeStyle=orthogonalEdgeStyle;rounded=0;orthogonalLoop=1;jettySize=auto;html=1;exitX=0;exitY=0.5;exitDx=0;exitDy=0;entryX=1;entryY=0.5;entryDx=0;entryDy=0;" edge="1" parent="1" source="3gEgKdH4jr2DElg1Tsu_-1" target="3gEgKdH4jr2DElg1Tsu_-5">
          <mxGeometry relative="1" as="geometry" />
        </mxCell>
        <mxCell id="3gEgKdH4jr2DElg1Tsu_-22" value="strat_dat == 2`b10" style="edgeLabel;html=1;align=center;verticalAlign=middle;resizable=0;points=[];" vertex="1" connectable="0" parent="3gEgKdH4jr2DElg1Tsu_-21">
          <mxGeometry x="0.0323" relative="1" as="geometry">
            <mxPoint x="10" as="offset" />
          </mxGeometry>
        </mxCell>
        <mxCell id="3gEgKdH4jr2DElg1Tsu_-1" value="IDLE" style="ellipse;whiteSpace=wrap;html=1;aspect=fixed;" vertex="1" parent="1">
          <mxGeometry x="334" y="90" width="80" height="80" as="geometry" />
        </mxCell>
        <mxCell id="3gEgKdH4jr2DElg1Tsu_-13" style="edgeStyle=orthogonalEdgeStyle;rounded=0;orthogonalLoop=1;jettySize=auto;html=1;exitX=0;exitY=1;exitDx=0;exitDy=0;entryX=1;entryY=1;entryDx=0;entryDy=0;" edge="1" parent="1" source="3gEgKdH4jr2DElg1Tsu_-2" target="3gEgKdH4jr2DElg1Tsu_-1">
          <mxGeometry relative="1" as="geometry" />
        </mxCell>
        <mxCell id="3gEgKdH4jr2DElg1Tsu_-14" value="start_dat == 2`b11" style="edgeLabel;html=1;align=center;verticalAlign=middle;resizable=0;points=[];" vertex="1" connectable="0" parent="3gEgKdH4jr2DElg1Tsu_-13">
          <mxGeometry x="0.1865" y="2" relative="1" as="geometry">
            <mxPoint x="11" as="offset" />
          </mxGeometry>
        </mxCell>
        <mxCell id="3gEgKdH4jr2DElg1Tsu_-15" style="edgeStyle=orthogonalEdgeStyle;rounded=0;orthogonalLoop=1;jettySize=auto;html=1;exitX=0.5;exitY=1;exitDx=0;exitDy=0;entryX=0.5;entryY=0;entryDx=0;entryDy=0;" edge="1" parent="1" source="3gEgKdH4jr2DElg1Tsu_-2" target="3gEgKdH4jr2DElg1Tsu_-3">
          <mxGeometry relative="1" as="geometry" />
        </mxCell>
        <mxCell id="3gEgKdH4jr2DElg1Tsu_-16" value="transf_cnt &amp;gt;= `BIT_BLOCK" style="edgeLabel;html=1;align=center;verticalAlign=middle;resizable=0;points=[];" vertex="1" connectable="0" parent="3gEgKdH4jr2DElg1Tsu_-15">
          <mxGeometry relative="1" as="geometry">
            <mxPoint as="offset" />
          </mxGeometry>
        </mxCell>
        <mxCell id="3gEgKdH4jr2DElg1Tsu_-2" value="WRITE_DAT" style="ellipse;whiteSpace=wrap;html=1;aspect=fixed;" vertex="1" parent="1">
          <mxGeometry x="530" y="90" width="80" height="80" as="geometry" />
        </mxCell>
        <mxCell id="3gEgKdH4jr2DElg1Tsu_-17" style="edgeStyle=orthogonalEdgeStyle;rounded=0;orthogonalLoop=1;jettySize=auto;html=1;exitX=0;exitY=0.5;exitDx=0;exitDy=0;entryX=1;entryY=0.5;entryDx=0;entryDy=0;" edge="1" parent="1" source="3gEgKdH4jr2DElg1Tsu_-3" target="3gEgKdH4jr2DElg1Tsu_-4">
          <mxGeometry relative="1" as="geometry" />
        </mxCell>
        <mxCell id="3gEgKdH4jr2DElg1Tsu_-18" value="crc_status == 0" style="edgeLabel;html=1;align=center;verticalAlign=middle;resizable=0;points=[];" vertex="1" connectable="0" parent="3gEgKdH4jr2DElg1Tsu_-17">
          <mxGeometry x="0.0345" y="2" relative="1" as="geometry">
            <mxPoint y="-2" as="offset" />
          </mxGeometry>
        </mxCell>
        <mxCell id="3gEgKdH4jr2DElg1Tsu_-3" value="WRITE_CRC" style="ellipse;whiteSpace=wrap;html=1;aspect=fixed;" vertex="1" parent="1">
          <mxGeometry x="530" y="230" width="80" height="80" as="geometry" />
        </mxCell>
        <mxCell id="3gEgKdH4jr2DElg1Tsu_-19" style="edgeStyle=orthogonalEdgeStyle;rounded=0;orthogonalLoop=1;jettySize=auto;html=1;exitX=0.5;exitY=0;exitDx=0;exitDy=0;entryX=0.5;entryY=1;entryDx=0;entryDy=0;" edge="1" parent="1" source="3gEgKdH4jr2DElg1Tsu_-4" target="3gEgKdH4jr2DElg1Tsu_-1">
          <mxGeometry relative="1" as="geometry" />
        </mxCell>
        <mxCell id="3gEgKdH4jr2DElg1Tsu_-20" value="(busy_int == 1) &amp;amp;&lt;div&gt;ack_transfer_int&lt;/div&gt;" style="edgeLabel;html=1;align=center;verticalAlign=middle;resizable=0;points=[];" vertex="1" connectable="0" parent="3gEgKdH4jr2DElg1Tsu_-19">
          <mxGeometry relative="1" as="geometry">
            <mxPoint as="offset" />
          </mxGeometry>
        </mxCell>
        <mxCell id="3gEgKdH4jr2DElg1Tsu_-4" value="WRITE_BUSY" style="ellipse;whiteSpace=wrap;html=1;aspect=fixed;" vertex="1" parent="1">
          <mxGeometry x="334" y="230" width="80" height="80" as="geometry" />
        </mxCell>
        <mxCell id="3gEgKdH4jr2DElg1Tsu_-23" style="edgeStyle=orthogonalEdgeStyle;rounded=0;orthogonalLoop=1;jettySize=auto;html=1;exitX=0.5;exitY=1;exitDx=0;exitDy=0;entryX=0.5;entryY=0;entryDx=0;entryDy=0;" edge="1" parent="1" source="3gEgKdH4jr2DElg1Tsu_-5" target="3gEgKdH4jr2DElg1Tsu_-6">
          <mxGeometry relative="1" as="geometry" />
        </mxCell>
        <mxCell id="3gEgKdH4jr2DElg1Tsu_-24" value="q_start_bit == 0" style="edgeLabel;html=1;align=center;verticalAlign=middle;resizable=0;points=[];" vertex="1" connectable="0" parent="3gEgKdH4jr2DElg1Tsu_-23">
          <mxGeometry relative="1" as="geometry">
            <mxPoint as="offset" />
          </mxGeometry>
        </mxCell>
        <mxCell id="3gEgKdH4jr2DElg1Tsu_-5" value="READ_WAIT" style="ellipse;whiteSpace=wrap;html=1;aspect=fixed;" vertex="1" parent="1">
          <mxGeometry x="130" y="90" width="80" height="80" as="geometry" />
        </mxCell>
        <mxCell id="3gEgKdH4jr2DElg1Tsu_-25" style="edgeStyle=orthogonalEdgeStyle;rounded=0;orthogonalLoop=1;jettySize=auto;html=1;exitX=1;exitY=0.5;exitDx=0;exitDy=0;entryX=0.03;entryY=0.79;entryDx=0;entryDy=0;entryPerimeter=0;" edge="1" parent="1" source="3gEgKdH4jr2DElg1Tsu_-6" target="3gEgKdH4jr2DElg1Tsu_-1">
          <mxGeometry relative="1" as="geometry">
            <mxPoint x="260" y="160" as="targetPoint" />
            <Array as="points">
              <mxPoint x="260" y="270" />
              <mxPoint x="260" y="153" />
            </Array>
          </mxGeometry>
        </mxCell>
        <mxCell id="3gEgKdH4jr2DElg1Tsu_-26" value="ack_transfer_int |&lt;div&gt;(start_dat == 2`b11)&lt;/div&gt;" style="edgeLabel;html=1;align=center;verticalAlign=middle;resizable=0;points=[];" vertex="1" connectable="0" parent="3gEgKdH4jr2DElg1Tsu_-25">
          <mxGeometry x="-0.1036" y="2" relative="1" as="geometry">
            <mxPoint as="offset" />
          </mxGeometry>
        </mxCell>
        <mxCell id="3gEgKdH4jr2DElg1Tsu_-6" value="READ_DAT" style="ellipse;whiteSpace=wrap;html=1;aspect=fixed;" vertex="1" parent="1">
          <mxGeometry x="130" y="230" width="80" height="80" as="geometry" />
        </mxCell>
        <mxCell id="3gEgKdH4jr2DElg1Tsu_-27" style="edgeStyle=orthogonalEdgeStyle;rounded=0;orthogonalLoop=1;jettySize=auto;html=1;exitX=0.5;exitY=0;exitDx=0;exitDy=0;entryX=0;entryY=0;entryDx=0;entryDy=0;" edge="1" parent="1" source="3gEgKdH4jr2DElg1Tsu_-1" target="3gEgKdH4jr2DElg1Tsu_-1">
          <mxGeometry relative="1" as="geometry">
            <Array as="points">
              <mxPoint x="374" y="70" />
              <mxPoint x="346" y="70" />
            </Array>
          </mxGeometry>
        </mxCell>
        <mxCell id="3gEgKdH4jr2DElg1Tsu_-29" style="edgeStyle=orthogonalEdgeStyle;rounded=0;orthogonalLoop=1;jettySize=auto;html=1;exitX=0.5;exitY=0;exitDx=0;exitDy=0;entryX=0;entryY=0;entryDx=0;entryDy=0;" edge="1" parent="1" source="3gEgKdH4jr2DElg1Tsu_-5" target="3gEgKdH4jr2DElg1Tsu_-5">
          <mxGeometry relative="1" as="geometry">
            <Array as="points">
              <mxPoint x="170" y="70" />
              <mxPoint x="142" y="70" />
            </Array>
          </mxGeometry>
        </mxCell>
        <mxCell id="3gEgKdH4jr2DElg1Tsu_-30" style="edgeStyle=orthogonalEdgeStyle;rounded=0;orthogonalLoop=1;jettySize=auto;html=1;exitX=0.5;exitY=1;exitDx=0;exitDy=0;entryX=0;entryY=1;entryDx=0;entryDy=0;" edge="1" parent="1" source="3gEgKdH4jr2DElg1Tsu_-6" target="3gEgKdH4jr2DElg1Tsu_-6">
          <mxGeometry relative="1" as="geometry">
            <Array as="points">
              <mxPoint x="170" y="330" />
              <mxPoint x="142" y="330" />
            </Array>
          </mxGeometry>
        </mxCell>
        <mxCell id="3gEgKdH4jr2DElg1Tsu_-31" style="edgeStyle=orthogonalEdgeStyle;rounded=0;orthogonalLoop=1;jettySize=auto;html=1;exitX=0.5;exitY=1;exitDx=0;exitDy=0;entryX=0;entryY=1;entryDx=0;entryDy=0;" edge="1" parent="1" source="3gEgKdH4jr2DElg1Tsu_-4" target="3gEgKdH4jr2DElg1Tsu_-4">
          <mxGeometry relative="1" as="geometry">
            <Array as="points">
              <mxPoint x="374" y="330" />
              <mxPoint x="346" y="330" />
            </Array>
          </mxGeometry>
        </mxCell>
        <mxCell id="3gEgKdH4jr2DElg1Tsu_-33" style="edgeStyle=orthogonalEdgeStyle;rounded=0;orthogonalLoop=1;jettySize=auto;html=1;exitX=0.5;exitY=1;exitDx=0;exitDy=0;entryX=0;entryY=1;entryDx=0;entryDy=0;" edge="1" parent="1" source="3gEgKdH4jr2DElg1Tsu_-3" target="3gEgKdH4jr2DElg1Tsu_-3">
          <mxGeometry relative="1" as="geometry">
            <Array as="points">
              <mxPoint x="570" y="330" />
              <mxPoint x="542" y="330" />
            </Array>
          </mxGeometry>
        </mxCell>
        <mxCell id="3gEgKdH4jr2DElg1Tsu_-34" style="edgeStyle=orthogonalEdgeStyle;rounded=0;orthogonalLoop=1;jettySize=auto;html=1;exitX=0.5;exitY=0;exitDx=0;exitDy=0;entryX=1;entryY=0;entryDx=0;entryDy=0;" edge="1" parent="1" source="3gEgKdH4jr2DElg1Tsu_-2" target="3gEgKdH4jr2DElg1Tsu_-2">
          <mxGeometry relative="1" as="geometry">
            <Array as="points">
              <mxPoint x="570" y="70" />
              <mxPoint x="598" y="70" />
            </Array>
          </mxGeometry>
        </mxCell>
      </root>
    </mxGraphModel>
  </diagram>
</mxfile>
